<svg xmlns="http://www.w3.org/2000/svg" width="810" viewBox="0 0 810 810" height="810" version="1.0"><path fill="#149DDD" d="M 405 0 C 181.804688 0 0 181.804688 0 405 C 0 628.195312 181.804688 810 405 810 C 628.195312 810 810 628.195312 810 405 C 810 181.804688 628.195312 0 405 0 Z M 405 81 C 584.421875 81 729 225.578125 729 405 C 729 584.421875 584.421875 729 405 729 C 225.578125 729 81 584.421875 81 405 C 81 225.578125 225.578125 81 405 81 Z M 284.605469 243 L 284.605469 567 L 408.558594 567 C 445.941406 567 474.6875 558.949219 494.9375 542.953125 C 515.1875 526.957031 525.3125 503.230469 525.3125 471.761719 C 525.3125 463.90625 524.292969 456.234375 522.308594 448.742188 C 520.324219 441.25 517.109375 434.339844 512.734375 427.941406 C 508.363281 421.539062 502.808594 415.910156 496.046875 411.089844 C 489.28125 406.269531 481.160156 402.722656 471.683594 400.332031 C 479.703125 397.214844 486.617188 393.289062 492.40625 388.46875 C 498.160156 383.648438 502.957031 378.285156 506.722656 372.332031 C 510.53125 366.378906 513.324219 359.992188 515.1875 353.1875 C 517.050781 346.382812 517.957031 339.242188 517.957031 331.832031 C 517.957031 316.683594 515.316406 303.574219 509.886719 292.4375 C 504.503906 281.300781 496.644531 272.003906 486.316406 264.675781 C 476.03125 257.34375 463.40625 251.941406 448.585938 248.378906 C 433.761719 244.816406 416.871094 243 398.039062 243 Z M 351.449219 297.105469 L 398.117188 297.105469 C 416.503906 297.105469 429.992188 300.316406 438.539062 306.757812 C 447.085938 313.195312 451.351562 323.773438 451.351562 338.476562 C 451.351562 351.234375 447.15625 361.09375 438.855469 367.980469 C 430.511719 374.867188 417.859375 378.453125 400.808594 378.738281 L 351.449219 378.738281 Z M 351.367188 425.804688 L 411.011719 425.804688 C 419.4375 425.804688 426.769531 426.902344 432.84375 428.96875 C 438.917969 431.074219 443.871094 434.058594 447.636719 437.984375 C 451.402344 441.914062 454.160156 446.675781 455.941406 452.222656 C 457.722656 457.773438 458.628906 464.082031 458.628906 471.050781 C 458.628906 477.125 457.609375 482.675781 455.625 487.820312 C 453.640625 492.960938 450.542969 497.421875 446.371094 501.1875 C 442.199219 504.996094 437.023438 507.980469 430.785156 510.125 C 424.589844 512.273438 417.144531 513.367188 408.558594 513.367188 L 351.367188 513.367188 Z M 351.367188 425.804688"/></svg>